<svg width="1024" height="1024" viewBox="0 0 1024 1024" fill="none" xmlns="http://www.w3.org/2000/svg">
<path d="M706.56 476.16C665.6 471.04 629.76 455.68 604.16 424.96C578.56 394.24 558.08 358.4 552.96 322.56C532.48 317.44 517.12 307.2 501.76 291.84C481.28 266.24 471.04 240.64 465.92 215.04L419.84 261.12L378.88 225.28C348.16 189.44 291.84 189.44 256 225.28L128 353.28C92.1601 389.12 92.1601 445.44 128 481.28L163.84 522.24L133.12 552.96C97.2801 588.8 97.2801 645.12 133.12 680.96L353.28 901.12C389.12 936.96 445.44 936.96 476.16 901.12L803.84 568.32C778.24 563.2 752.64 552.96 732.16 532.48C727.04 512 716.8 491.52 706.56 476.16V476.16ZM184.32 389.12L286.72 286.72C302.08 271.36 327.68 271.36 337.92 286.72L363.52 312.32L215.04 471.04L184.32 440.32C174.08 424.96 174.08 404.48 184.32 389.12V389.12ZM215.04 629.76C199.68 614.4 199.68 593.92 215.04 583.68L435.2 358.4C450.56 343.04 471.04 343.04 481.28 358.4C496.64 373.76 496.64 394.24 481.28 404.48L261.12 624.64C245.76 640 225.28 640 215.04 629.76V629.76ZM307.2 721.92C291.84 706.56 291.84 686.08 307.2 675.84L527.36 455.68C542.72 440.32 563.2 440.32 573.44 455.68C588.8 471.04 588.8 491.52 573.44 501.76L353.28 721.92C343.04 737.28 322.56 737.28 307.2 721.92V721.92ZM670.72 593.92L450.56 819.2C435.2 834.56 414.72 834.56 404.48 819.2C389.12 803.84 389.12 783.36 404.48 773.12L624.64 552.96C640 537.6 660.48 537.6 670.72 552.96C680.96 558.08 680.96 583.68 670.72 593.92V593.92ZM896 368.64C885.76 358.4 870.4 348.16 860.16 348.16C880.64 296.96 870.4 235.52 829.44 199.68C788.48 158.72 732.16 148.48 680.96 168.96C675.84 153.6 665.6 138.24 655.36 128C619.52 92.1601 563.2 92.1601 532.48 128C496.64 163.84 496.64 220.16 532.48 256C547.84 271.36 573.44 281.6 593.92 281.6C588.8 322.56 604.16 363.52 634.88 394.24C665.6 424.96 706.56 435.2 747.52 435.2C747.52 460.8 757.76 481.28 773.12 496.64C808.96 532.48 865.28 532.48 896 496.64C931.84 460.8 931.84 404.48 896 368.64V368.64Z" fill="black"/>
</svg>
