<svg version="1.0" xmlns="http://www.w3.org/2000/svg" width="512.000000pt" height="512.000000pt" viewBox="0 0 512.000000 512.000000" preserveAspectRatio="xMidYMid meet">
    <g transform="translate(0.000000,512.000000) scale(0.100000,-0.100000)" fill="#000000" stroke="none">
    <path d="M3882 4245 c-102 -19 -224 -80 -298 -148 l-61 -56 -63 26 c-55 22 -75 25 -149 21 -106 -5 -181 -36 -245 -103 -92 -94 -115 -184 -116 -447 l0 -148 -406 0 c-283 0 -419 -4 -446 -12 -51 -15 -122 -78 -144 -128 l-17 -38 -231 -4 c-229 -3 -231 -3 -288 -31 -92 -45 -144 -117 -202 -278 -15 -43 -22 -49 -89 -80 -61 -28 -86 -34 -165 -37 l-92 -4 0 101 c0 153 33 141 -390 141 -337 0 -351 -1 -370 -20 -20 -20 -20 -33 -20 -863 0 -805 1 -845 18 -860 17 -15 57 -17 374 -17 419 0 388 -9 388 118 l0 82 84 0 c96 0 226 -21 307 -49 59 -20 99 -39 233 -109 92 -48 211 -78 347 -88 l96 -7 12 -34 c17 -46 65 -100 115 -126 40 -21 51 -22 463 -25 l422 -3 6 -30 c9 -39 61 -98 102 -115 26 -12 198 -14 930 -14 853 0 900 1 939 19 47 22 80 59 94 110 8 24 10 445 8 1321 -3 1211 -4 1288 -21 1331 -23 58 -74 119 -131 155 -35 22 -45 35 -50 64 -14 91 -107 208 -202 254 -62 31 -155 46 -221 36 -42 -7 -54 -3 -117 31 -125 66 -271 90 -404 64z m209 -119 c68 -15 153 -53 199 -88 22 -17 34 -19 90 -12 93 10 136 6 186 -18 54 -25 121 -98 134 -147 5 -20 15 -54 20 -76 9 -33 21 -47 72 -80 74 -48 95 -75 107 -137 l8 -48 -211 0 c-167 0 -216 -3 -232 -14 -18 -13 -19 -32 -24 -271 l-5 -257 -33 -29 c-24 -22 -42 -29 -72 -29 -30 0 -48 7 -72 29 l-33 29 -5 257 c-5 239 -6 258 -24 271 -17 12 -112 14 -574 14 l-555 0 5 130 c5 115 9 136 33 186 46 94 129 139 240 132 51 -3 74 -11 123 -41 33 -20 65 -37 70 -37 6 0 48 37 94 83 92 92 154 129 259 151 83 19 119 19 200 2z m9 -906 l0 -180 -270 0 c-257 0 -271 -1 -290 -20 -11 -11 -20 -29 -20 -40 0 -11 9 -29 20 -40 19 -19 33 -20 303 -20 l282 0 29 -36 c43 -54 124 -88 193 -81 63 7 132 43 163 87 l21 30 190 0 189 0 0 -710 0 -710 -920 0 -920 0 0 710 0 710 95 0 c82 0 98 3 115 20 11 11 20 29 20 40 0 11 -9 29 -20 40 -17 17 -33 20 -115 20 l-95 0 0 180 0 180 515 0 515 0 0 -180z m810 0 l0 -180 -175 0 -175 0 0 180 0 180 175 0 175 0 0 -180z m-1960 0 l0 -50 -327 0 c-366 0 -375 -2 -420 -69 -22 -32 -23 -44 -23 -192 l0 -159 -66 0 -65 0 3 224 c3 224 3 225 28 251 14 15 34 31 45 35 11 5 201 9 423 9 l402 1 0 -50z m-1020 -287 l-1 -158 -21 40 c-11 22 -26 43 -32 47 -18 12 -51 9 -71 -6 -39 -29 -7 -139 54 -183 53 -40 84 -43 392 -43 169 0 309 -4 323 -10 30 -11 66 -65 66 -97 0 -34 -20 -71 -49 -90 -22 -15 -55 -18 -216 -21 -156 -3 -193 -6 -207 -19 -23 -20 -23 -61 -1 -85 14 -16 34 -18 197 -18 162 0 184 -2 213 -20 82 -50 82 -160 0 -210 -29 -18 -51 -20 -207 -20 -196 0 -220 -7 -220 -59 0 -51 16 -56 226 -61 l194 -5 32 -33 c28 -28 33 -39 33 -82 0 -43 -5 -54 -33 -82 l-32 -33 -188 -3 c-154 -3 -190 -6 -204 -19 -23 -20 -23 -61 -1 -85 14 -16 33 -18 150 -18 143 0 177 -8 207 -52 22 -32 20 -100 -4 -130 -38 -49 -53 -50 -427 -45 -412 6 -412 5 -628 112 -187 94 -296 124 -477 132 l-128 6 0 329 c0 315 -1 329 -20 348 -11 11 -29 20 -40 20 -11 0 -29 -9 -40 -20 -19 -19 -20 -33 -20 -450 l0 -430 -270 0 -270 0 0 760 0 760 270 0 270 0 0 -185 c0 -172 1 -186 20 -205 11 -11 29 -20 40 -20 40 0 60 35 60 105 l0 65 78 0 c95 0 170 19 262 65 76 39 98 64 126 150 24 72 58 136 87 163 47 44 88 51 305 52 l202 0 0 -157z m535 95 c-18 -59 -61 -121 -100 -144 -23 -13 -47 -24 -53 -24 -13 0 -18 171 -5 183 3 4 42 7 85 7 78 0 79 0 73 -22z m485 -823 l0 -845 -145 0 -145 0 7 28 c13 46 6 118 -18 163 -13 27 -17 45 -11 47 25 8 64 46 87 87 49 83 42 188 -19 267 l-25 33 29 38 c35 47 55 124 46 179 -7 45 -37 108 -59 127 -13 10 -11 19 18 62 52 76 57 156 15 239 -44 85 -115 119 -255 121 -55 0 -93 3 -85 6 79 30 158 128 186 231 l17 62 179 0 178 0 0 -845z m1960 -1007 c0 -155 -2 -184 -17 -200 -15 -17 -56 -18 -901 -18 -810 0 -887 1 -904 17 -16 14 -18 35 -18 200 l0 183 920 0 920 0 0 -182z m-1960 -8 l0 -50 -404 0 c-401 0 -403 0 -436 23 -66 44 -57 47 162 48 143 0 213 4 238 13 24 10 96 14 238 15 l202 1 0 -50z"/> 
    <path d="M3360 2683 c-38 -15 -74 -50 -91 -87 -17 -38 -19 -72 -19 -426 0 -380 0 -386 23 -430 60 -119 231 -120 294 -1 23 44 23 45 23 430 0 355 -2 389 -19 427 -26 58 -72 87 -140 91 -31 1 -63 0 -71 -4z m98 -125 c16 -16 17 -739 2 -769 -7 -12 -21 -19 -40 -19 -19 0 -33 7 -40 19 -15 30 -14 753 2 769 7 7 24 12 38 12 14 0 31 -5 38 -12z"/>
    <path d="M3930 2683 c-38 -15 -74 -50 -91 -87 -17 -38 -19 -72 -19 -426 0 -380 0 -386 23 -430 60 -119 231 -120 294 -1 23 44 23 45 23 430 0 355 -2 389 -19 427 -26 58 -72 87 -140 91 -31 1 -63 0 -71 -4z m98 -125 c16 -16 17 -739 2 -769 -7 -12 -21 -19 -40 -19 -19 0 -33 7 -40 19 -15 30 -14 753 2 769 7 7 24 12 38 12 14 0 31 -5 38 -12z"/>
    <path d="M4500 2683 c-38 -15 -74 -50 -91 -87 -17 -38 -19 -72 -19 -426 0 -380 0 -386 23 -430 60 -119 231 -120 294 -1 23 44 23 45 23 430 0 355 -2 389 -19 427 -26 58 -72 87 -140 91 -31 1 -63 0 -71 -4z m98 -125 c16 -16 17 -739 2 -769 -7 -12 -21 -19 -40 -19 -19 0 -33 7 -40 19 -15 30 -14 753 2 769 7 7 24 12 38 12 14 0 31 -5 38 -12z"/>
    <path d="M994 1795 c-16 -24 -16 -30 -3 -53 16 -29 32 -34 154 -52 114 -17 242 -62 373 -132 115 -61 190 -88 249 -88 81 0 85 98 5 116 -66 14 -126 37 -184 71 -145 85 -340 149 -489 160 -86 6 -87 6 -105 -22z"/>
    <path d="M1906 1554 c-24 -23 -20 -70 6 -88 12 -9 43 -16 68 -16 25 0 56 7 68 16 27 19 29 64 4 87 -25 23 -124 23 -146 1z"/>
    </g>
</svg>
