<svg width="1024" height="1024" viewBox="0 0 1024 1024" fill="none" xmlns="http://www.w3.org/2000/svg">
<g clip-path="url(#clip0_43_20)">
<path d="M384 910.222C423.273 910.222 455.111 878.385 455.111 839.111C455.111 799.838 423.273 768 384 768C344.726 768 312.889 799.838 312.889 839.111C312.889 878.385 344.726 910.222 384 910.222Z" fill="black"/>
<path d="M753.778 910.222C793.052 910.222 824.889 878.385 824.889 839.111C824.889 799.838 793.052 768 753.778 768C714.505 768 682.667 799.838 682.667 839.111C682.667 878.385 714.505 910.222 753.778 910.222Z" fill="black"/>
<path d="M941.511 181.76C938.861 178.318 935.458 175.528 931.563 173.605C927.667 171.682 923.384 170.677 919.04 170.666H261.973L249.173 129.991C247.767 125.624 245.325 121.661 242.056 118.442C238.787 115.222 234.788 112.841 230.4 111.502L113.777 75.662C110.191 74.5601 106.423 74.1753 102.689 74.5295C98.9541 74.8837 95.3258 75.9701 92.0109 77.7266C85.3163 81.2739 80.305 87.3354 78.0796 94.5776C75.8541 101.82 76.5967 109.649 80.1441 116.344C83.6914 123.039 89.7529 128.05 96.9951 130.275L199.111 161.564L329.386 573.155L283.022 611.271L279.324 614.969C267.858 628.246 261.362 645.094 260.947 662.632C260.532 680.169 266.223 697.307 277.048 711.111C284.801 720.539 294.653 728.022 305.815 732.961C316.978 737.9 329.141 740.159 341.333 739.555H816.071C823.615 739.555 830.85 736.559 836.184 731.224C841.518 725.89 844.515 718.655 844.515 711.111C844.515 703.567 841.518 696.332 836.184 690.998C830.85 685.663 823.615 682.667 816.071 682.667H336.782C333.506 682.555 330.315 681.6 327.516 679.895C324.717 678.189 322.406 675.791 320.804 672.932C319.203 670.072 318.366 666.848 318.375 663.57C318.383 660.293 319.237 657.073 320.853 654.222L389.404 597.333H828.302C834.8 597.522 841.166 595.481 846.341 591.547C851.517 587.614 855.189 582.027 856.746 575.715L947.768 205.938C948.633 201.697 948.519 197.315 947.435 193.125C946.351 188.935 944.324 185.048 941.511 181.76V181.76Z" fill="black"/>
</g>
<defs>
<clipPath id="clip0_43_20">
<rect width="1024" height="1024" fill="white"/>
</clipPath>
</defs>
</svg>
