<svg width="500" height="500" viewBox="0 0 500 500" fill="none">
<g clip-path="url(#clip0_68_110)">
<path d="M117.764 118.161C117.764 118.161 346.682 119.694 495 119.694M117.764 118.161L89.0663 72.2435C86.459 68.0719 81.2229 66.432 76.7878 68.5605C68.3342 72.6176 53.9218 80.0172 38.3952 90.1134C16.4177 104.404 3.35502 128.761 6.69024 154.763C17.2445 237.047 76.9804 384.901 178.989 422.652C187.664 425.863 197.172 426.121 206.02 423.428C233.193 415.156 254.789 400.625 264.889 393.016C268.615 390.209 269.535 385.143 267.312 381.041L263.633 374.251M117.764 118.161L132.095 145.23C134.417 149.616 133.092 155.045 129.01 157.868V157.868M495 119.694C495 219.704 493.978 374.251 493.978 374.251M495 119.694L365.166 243.969M493.978 374.251H278.779H263.633M493.978 374.251L365.166 243.969M129.01 157.868L93.0499 182.734C90.0135 184.833 88.3802 188.408 88.9189 192.06C91.1121 206.927 98.0467 246.283 112.653 268.952C126.075 289.785 155.527 311.348 167.121 319.367C170.092 321.422 173.926 321.584 177.123 319.903L212.789 301.151C217.634 298.603 223.627 300.425 226.235 305.238L263.633 374.251M129.01 157.868L221.53 247.484M365.166 243.969L307.161 299.489C298.703 307.585 285.386 307.638 276.864 299.61L221.53 247.484M221.53 247.484L157.124 309.845" stroke="black" stroke-width="13"/>
</g>
<defs>
<clipPath id="clip0_68_110">
<rect width="500" height="500" fill="white"/>
</clipPath>
</defs>
</svg>
