<svg width="1156" height="1258" viewBox="0 0 1156 1258" fill="none" xmlns="http://www.w3.org/2000/svg">
<path d="M521.613 1117.36C521.607 1117.34 521.585 1117.3 521.546 1117.22C521.469 1117.06 521.321 1116.77 521.083 1116.35C520.608 1115.51 519.773 1114.15 518.417 1112.25C515.704 1108.45 510.916 1102.52 502.776 1094.38C486.487 1078.09 456.869 1053.03 403.826 1018.47C349.013 982.758 329.007 930.479 322.688 887.485C319.53 865.996 319.772 846.743 320.8 832.862C321.315 825.915 322.027 820.298 322.615 816.398C322.909 814.448 323.172 812.926 323.364 811.881C323.46 811.359 323.538 810.955 323.594 810.677C323.621 810.538 323.643 810.43 323.659 810.354L323.677 810.264L323.683 810.238L323.685 810.229C323.686 810.226 323.686 810.223 328.576 811.266L323.686 810.223L327.445 792.597L333.3 809.627L333.301 809.631C333.305 809.641 333.313 809.663 333.325 809.697C333.35 809.766 333.394 809.884 333.459 810.051C333.589 810.384 333.802 810.911 334.113 811.625C334.735 813.052 335.751 815.224 337.281 818.08C340.342 823.79 345.465 832.237 353.624 842.917C369.94 864.277 398.419 894.598 446.869 929.836C496.201 965.711 520.186 997.76 531.8 1021.2C537.604 1032.91 540.296 1042.43 541.526 1049.14C542.14 1052.49 542.388 1055.13 542.479 1056.98C542.524 1057.91 542.53 1058.63 542.523 1059.15C542.521 1059.26 542.519 1059.35 542.517 1059.43C542.514 1059.57 542.51 1059.68 542.505 1059.78C542.502 1059.86 542.498 1059.92 542.495 1059.97L542.491 1060.04L542.49 1060.07L542.489 1060.08C542.488 1060.08 542.488 1060.09 537.502 1059.72L542.488 1060.09L532.631 1060.73C532.605 1060.73 532.606 1060.73 532.606 1060.73L532.606 1060.74C532.604 1060.73 532.599 1060.7 532.591 1060.67C532.576 1060.6 532.55 1060.49 532.511 1060.33C532.433 1060.01 532.304 1059.51 532.115 1058.85C531.735 1057.52 531.111 1055.55 530.155 1053.05C528.243 1048.05 525.006 1040.99 519.75 1032.9C509.258 1016.74 490.658 996.407 458.25 980.304L458.25 980.304C424.474 963.517 400.675 944.761 385.282 930.14C382.957 927.932 380.824 925.818 378.878 923.82C379.994 926.341 381.285 929.047 382.777 931.923C392.782 951.2 411.902 978.209 448.324 1008.26C485.61 1039.03 506.266 1065.26 517.63 1084C523.311 1093.37 526.663 1100.85 528.607 1106.07C529.579 1108.68 530.199 1110.72 530.582 1112.15C530.773 1112.87 530.906 1113.43 530.993 1113.83C531.014 1113.92 531.032 1114 531.047 1114.08C531.065 1114.17 531.08 1114.24 531.093 1114.31C531.104 1114.37 531.114 1114.42 531.121 1114.46L531.13 1114.51L531.134 1114.53L531.135 1114.53C531.136 1114.54 531.136 1114.54 526.208 1115.39L531.136 1114.54L521.647 1117.29C521.593 1117.31 521.594 1117.31 521.594 1117.31L521.598 1117.32L521.604 1117.33L521.612 1117.35L521.613 1117.36ZM521.613 1117.36C521.616 1117.36 521.616 1117.36 521.614 1117.36L521.613 1117.36ZM508.938 584.928L508.089 582.429C492.985 538.026 470.722 504.696 452.222 482.455C442.97 471.332 434.65 462.971 428.618 457.371C425.601 454.571 423.156 452.46 421.45 451.038C420.597 450.327 419.928 449.788 419.466 449.422C419.235 449.238 419.055 449.098 418.929 449.001C418.887 448.968 418.851 448.94 418.822 448.917L418.782 448.887L418.739 448.854L418.726 448.844L418.721 448.841C418.719 448.839 418.717 448.838 415.702 452.826L418.717 448.838L415.714 446.567L412.702 448.826C389.063 466.554 373.039 494.815 362.976 518.137C357.912 529.873 354.288 540.523 351.928 548.244C350.747 552.107 349.881 555.244 349.307 557.426C349.02 558.518 348.806 559.37 348.663 559.956C348.591 560.249 348.537 560.475 348.5 560.631L348.469 560.763L348.457 560.812L348.446 560.863L348.442 560.877L348.441 560.882C348.441 560.884 348.441 560.885 353.315 561.999L348.441 560.885L347.743 563.936L350.183 565.897C363.699 576.758 375.652 588.175 384.237 596.893C388.526 601.247 391.963 604.917 394.323 607.492C395.503 608.779 396.413 609.792 397.025 610.48C397.33 610.824 397.562 611.086 397.715 611.261C397.792 611.348 397.849 611.413 397.886 611.456L397.926 611.502L397.935 611.513L397.936 611.514L508.938 584.928ZM508.938 584.928L507.355 587.039L507.355 587.04L507.352 587.043L507.339 587.06L507.287 587.131C507.24 587.194 507.169 587.289 507.076 587.414C506.97 587.555 506.836 587.736 506.676 587.953C506.553 588.119 506.414 588.307 506.26 588.516C505.553 589.476 504.533 590.867 503.293 592.587C500.809 596.029 497.446 600.776 493.921 605.998C486.723 616.661 479.33 628.62 476.895 635.682L471.653 650.89L467.35 635.39L467.35 635.388L467.348 635.379L467.336 635.339L467.289 635.169C467.246 635.017 467.181 634.788 467.094 634.485C466.921 633.88 466.66 632.983 466.317 631.824C465.629 629.506 464.608 626.147 463.28 622.001C460.621 613.705 456.739 602.28 451.845 589.764C443.879 569.393 433.413 546.621 421.413 529.657L508.938 584.928ZM807.94 563.936L807.242 560.885L802.368 561.999C807.242 560.885 807.242 560.884 807.242 560.882L807.241 560.877L807.237 560.862L807.226 560.812C807.216 560.77 807.202 560.709 807.183 560.631C807.146 560.475 807.092 560.249 807.02 559.956C806.877 559.37 806.663 558.517 806.376 557.426C805.802 555.244 804.935 552.107 803.754 548.244C801.394 540.523 797.77 529.873 792.706 518.137C782.642 494.815 766.618 466.554 742.982 448.826L739.969 446.567L736.966 448.838L739.982 452.826C736.966 448.838 736.964 448.839 736.962 448.841L736.957 448.844L736.944 448.854L736.901 448.887C736.866 448.914 736.817 448.952 736.754 449.001C736.628 449.098 736.448 449.238 736.217 449.422C735.755 449.788 735.087 450.327 734.233 451.038C732.527 452.46 730.082 454.571 727.065 457.371C721.033 462.971 712.713 471.332 703.461 482.455C684.961 504.696 662.698 538.026 647.595 582.429L646.745 584.928L648.328 587.039L648.328 587.039L648.331 587.043L648.344 587.06L648.396 587.131C648.444 587.194 648.514 587.289 648.608 587.414C648.794 587.664 649.07 588.036 649.423 588.516C650.131 589.476 651.15 590.867 652.391 592.587C654.874 596.029 658.237 600.776 661.762 605.998C668.96 616.661 676.353 628.62 678.788 635.682L684.031 650.89L688.333 635.39L688.333 635.388L688.336 635.379L688.347 635.339L688.395 635.169C688.438 635.017 688.503 634.788 688.589 634.485C688.763 633.88 689.023 632.983 689.367 631.824C690.054 629.506 691.075 626.147 692.404 622.001C695.062 613.705 698.944 602.279 703.838 589.764C711.804 569.393 722.27 546.621 734.27 529.657C734.362 534.182 734.591 539.575 735.069 545.588C736.503 563.612 740.198 587.418 749.33 610.106L752.386 617.699L807.94 563.936ZM807.94 563.936L805.5 565.897C791.984 576.758 780.031 588.175 771.446 596.893C767.157 601.247 763.72 604.917 761.36 607.492C760.18 608.779 759.27 609.792 758.659 610.48C758.353 610.824 758.121 611.086 757.968 611.261C757.892 611.348 757.835 611.413 757.797 611.456L757.757 611.502L757.748 611.513L757.747 611.514L807.94 563.936ZM878.571 586.09L874.207 588.119L876.315 592.653C874.207 588.119 874.204 588.12 874.201 588.121L874.193 588.125L874.171 588.136L874.101 588.169C874.043 588.196 873.964 588.234 873.862 588.284C873.66 588.382 873.372 588.524 873.001 588.713C872.26 589.09 871.19 589.652 869.824 590.413C867.091 591.937 863.171 594.26 858.319 597.509C848.616 604.008 835.183 614.211 820.067 629.121C789.819 658.957 752.894 707.58 725.6 782.937L725.069 784.403L878.571 586.09ZM878.571 586.09L880.765 590.373C906.79 641.187 907.573 692.136 901.929 730.217C899.105 749.27 894.665 765.165 890.923 776.315C889.052 781.893 887.352 786.291 886.113 789.312C885.493 790.822 884.988 791.989 884.633 792.788C884.456 793.187 884.316 793.494 884.219 793.706C884.17 793.812 884.132 793.894 884.105 793.952L884.072 794.021L884.062 794.042L884.059 794.049C884.058 794.052 884.057 794.054 879.542 791.906L884.057 794.054L874.543 791.796C875.325 756.181 864.968 730.925 854.553 714.628C849.334 706.461 844.081 700.517 840.17 696.641C840.004 696.477 839.841 696.316 839.68 696.159M878.571 586.09L839.68 696.159M839.68 696.159C822.86 761.805 796.998 799.83 774.629 821.598C763.014 832.9 752.4 839.761 744.594 843.816C740.694 845.843 737.5 847.166 735.238 847.993C734.107 848.407 733.21 848.696 732.573 848.888C732.255 848.983 732.002 849.054 731.818 849.104C731.726 849.129 731.652 849.149 731.594 849.163L731.522 849.182L731.496 849.188L731.485 849.191C731.481 849.192 731.476 849.193 730.302 844.333L731.476 849.193L723.207 851.192L725.484 842.994C729.297 829.269 729.326 815.007 728.346 804.041C727.859 798.585 727.129 794.01 726.523 790.813C726.221 789.216 725.95 787.967 725.758 787.129C725.72 786.962 725.685 786.812 725.654 786.679C725.606 786.476 725.566 786.312 725.536 786.188C725.51 786.085 725.491 786.01 725.48 785.964L725.467 785.916L725.466 785.912L725.466 785.91L725.465 785.908L839.68 696.159ZM577.835 175.755C578.396 176.095 579.047 176.496 579.785 176.957C582.675 178.762 586.882 181.492 592.09 185.154C602.509 192.481 616.921 203.53 632.81 218.373C664.606 248.076 702.195 292.852 725.64 353.262L728.614 360.922L734.049 354.763L734.049 354.763L734.05 354.762L734.051 354.761L734.051 354.76L734.069 354.74C734.087 354.72 734.115 354.688 734.155 354.644C734.193 354.602 734.241 354.55 734.298 354.487C734.36 354.418 734.434 354.337 734.519 354.245C734.844 353.892 735.328 353.376 735.943 352.743C737.177 351.473 738.925 349.749 740.976 347.936C744.415 344.896 748.308 341.967 751.862 340.276C752.225 340.604 752.63 340.973 753.075 341.383C755.323 343.448 758.592 346.536 762.633 350.59C770.718 358.699 781.886 370.664 794.158 386.028C818.721 416.781 847.599 461.025 865.104 515.138L866.917 520.743L577.835 175.755ZM577.835 175.755C577.275 176.095 576.623 176.496 575.886 176.956C572.996 178.762 568.79 181.491 563.582 185.154C553.165 192.48 538.754 203.53 522.867 218.373C491.074 248.075 453.488 292.851 430.043 353.262L427.07 360.923L421.634 354.763L421.634 354.763L421.633 354.762L421.632 354.761L421.632 354.76L421.614 354.74C421.596 354.72 421.568 354.688 421.528 354.644C421.488 354.6 421.437 354.544 421.376 354.476C421.315 354.41 421.245 354.333 421.164 354.245C420.839 353.892 420.356 353.376 419.74 352.743C418.506 351.473 416.758 349.749 414.707 347.936C411.269 344.896 407.375 341.967 403.822 340.276C403.458 340.604 403.053 340.973 402.608 341.383C400.36 343.448 397.092 346.536 393.05 350.59C384.966 358.699 373.797 370.663 361.526 386.028C336.963 416.781 308.085 461.025 290.58 515.138L288.768 520.742L283.535 518.045L283.534 518.045L283.532 518.044L283.527 518.041L283.484 518.019C283.442 517.998 283.376 517.964 283.284 517.919C283.102 517.828 282.82 517.689 282.446 517.509C281.697 517.148 280.575 516.622 279.119 515.976C276.205 514.683 271.963 512.916 266.704 511.047C256.804 507.53 243.399 503.688 228.538 501.941C228.25 502.369 227.926 502.855 227.569 503.399C225.892 505.959 223.492 509.794 220.651 514.828C214.968 524.897 207.526 539.749 200.574 558.769C186.67 596.806 174.736 651.468 182.692 717.898L184.027 729.047L174.847 722.58L177.727 718.493C174.847 722.58 174.845 722.579 174.843 722.577L174.838 722.574L174.822 722.563L174.772 722.526C174.729 722.496 174.67 722.454 174.594 722.399C174.443 722.29 174.225 722.131 173.945 721.924C173.385 721.508 172.574 720.896 171.541 720.088C169.475 718.472 166.518 716.07 162.893 712.883C155.644 706.51 145.716 696.989 134.903 684.33C114.611 660.576 91.1459 625.705 76.4664 579.792C72.8994 584.519 67.9249 591.54 62.2438 600.771C50.7105 619.511 36.2756 647.341 24.7873 683.566C1.83195 755.949 -9.42875 862.054 38.0456 996.481L38.0962 996.624L38.1371 996.767L38.138 996.77L38.1457 996.797C38.1534 996.823 38.1663 996.867 38.1844 996.928C38.2207 997.049 38.2782 997.24 38.3577 997.496C38.5168 998.007 38.7643 998.783 39.1079 999.801C39.7952 1001.84 40.8666 1004.85 42.3834 1008.67C45.4177 1016.3 50.2313 1027.18 57.314 1039.99C71.4827 1065.64 94.702 1099.01 130.877 1129.86C203.031 1191.41 327.485 1243.59 536.575 1202.97L539.514 1202.4L541.405 1204.72L577.836 1249.44L614.279 1204.72L616.17 1202.4L619.108 1202.97C828.201 1243.59 952.656 1191.41 1024.81 1129.86C1060.98 1099.01 1084.2 1065.64 1098.37 1039.99C1105.45 1027.18 1110.27 1016.3 1113.3 1008.67C1114.82 1004.85 1115.89 1001.84 1116.58 999.801C1116.92 998.783 1117.17 998.007 1117.33 997.496C1117.41 997.24 1117.47 997.05 1117.5 996.928C1117.52 996.867 1117.53 996.823 1117.54 996.797L1117.55 996.771L1117.55 996.767L1117.59 996.624L1117.64 996.481C1165.11 862.054 1153.85 755.949 1130.9 683.566C1119.41 647.341 1104.98 619.511 1093.44 600.771C1087.76 591.54 1082.79 584.519 1079.22 579.792C1064.54 625.705 1041.07 660.577 1020.78 684.33C1009.97 696.989 1000.04 706.51 992.789 712.883C989.164 716.07 986.207 718.472 984.141 720.088C983.108 720.896 982.297 721.508 981.737 721.924C981.457 722.131 981.239 722.29 981.088 722.399C981.012 722.454 980.953 722.496 980.91 722.526L980.86 722.563L980.844 722.574L980.839 722.577C980.836 722.579 980.835 722.58 977.955 718.493L980.835 722.58L971.655 729.048L972.99 717.898C980.946 651.468 969.012 596.806 955.109 558.769C948.156 539.749 940.715 524.897 935.032 514.828C932.191 509.794 929.791 505.959 928.114 503.399C927.757 502.855 927.434 502.369 927.145 501.941C912.281 503.688 898.876 507.53 888.977 511.047C883.719 512.916 879.478 514.683 876.565 515.975C875.109 516.621 873.987 517.148 873.239 517.509C872.864 517.689 872.583 517.827 872.401 517.919C872.309 517.964 872.243 517.998 872.201 518.019L872.158 518.041L872.153 518.044L872.151 518.044L872.15 518.045L577.835 175.755ZM1009.39 927.581L1001.59 921.53C1001.59 921.526 1001.59 921.526 1001.59 921.526L1001.59 921.525L1001.59 921.524L1001.59 921.512L1001.63 921.443C1001.67 921.378 1001.72 921.275 1001.79 921.135C1001.94 920.856 1002.17 920.429 1002.45 919.86C1003.03 918.724 1003.87 917.023 1004.89 914.813C1006.93 910.39 1009.7 903.932 1012.57 895.862C1016.82 883.902 1021.27 868.457 1023.91 850.888C1020.26 855.567 1015.77 860.867 1010.51 866.248C994.762 882.338 971.546 899.694 942.687 902.548L928.75 903.927L938.663 894.034L938.665 894.032L938.675 894.021L938.721 893.976C938.762 893.934 938.826 893.87 938.911 893.785C939.08 893.613 939.336 893.354 939.673 893.011C940.347 892.323 941.345 891.296 942.632 889.951C945.205 887.26 948.93 883.296 953.513 878.229C962.681 868.092 975.272 853.552 988.945 835.956C1016.35 800.696 1047.86 753.463 1065.03 704.996L1074.7 706.02L1069.74 706.666C1074.7 706.02 1074.7 706.022 1074.7 706.025L1074.7 706.033L1074.7 706.059L1074.72 706.148C1074.73 706.224 1074.74 706.334 1074.76 706.477C1074.79 706.762 1074.84 707.179 1074.9 707.721C1075.02 708.804 1075.18 710.388 1075.35 712.423C1075.7 716.492 1076.09 722.367 1076.31 729.649C1076.75 744.203 1076.47 764.421 1073.58 787.09C1067.83 832.296 1051.64 887.976 1009.39 927.581ZM769.993 1158.56L769.391 1148.62C769.39 1148.61 769.39 1148.61 769.39 1148.61L769.391 1148.61L769.392 1148.61L769.403 1148.61L769.453 1148.6L769.522 1148.59L769.671 1148.57C769.868 1148.54 770.165 1148.49 770.558 1148.43C771.346 1148.31 772.518 1148.12 774.037 1147.85C777.075 1147.33 781.499 1146.52 787.004 1145.37C798.019 1143.07 813.339 1139.45 830.533 1134.13C855.687 1126.34 884.56 1115.01 909.821 1099.11C896.176 1103.73 878.881 1109.25 859.54 1114.64C812.82 1127.68 753.602 1140.18 705.007 1137.31L685.866 1136.18L703.122 1127.82L705.302 1132.32C703.122 1127.82 703.122 1127.82 703.123 1127.82L703.128 1127.82L703.142 1127.81L703.197 1127.78L703.41 1127.68C703.598 1127.59 703.875 1127.46 704.242 1127.28C704.974 1126.93 706.058 1126.42 707.478 1125.75C710.316 1124.42 714.491 1122.48 719.857 1120.04C730.588 1115.17 746.082 1108.33 765.163 1100.41C803.314 1084.57 855.846 1064.4 913.33 1047.13C970.073 1030.08 1007.34 1008.82 1030.33 991.963C1041.82 983.529 1049.77 976.185 1054.8 971.002C1057.31 968.41 1059.1 966.357 1060.24 964.977C1060.81 964.287 1061.22 963.766 1061.48 963.429C1061.61 963.26 1061.7 963.138 1061.75 963.064L1061.78 963.023L1061.81 962.989L1061.81 962.985C1061.81 962.985 1061.81 962.986 1061.83 963.003L1070.57 967.644L1065.89 965.879C1070.57 967.644 1070.57 967.647 1070.56 967.65L1070.56 967.662L1070.55 967.697L1070.54 967.709L1070.5 967.821C1070.46 967.926 1070.4 968.077 1070.32 968.272C1070.17 968.662 1069.94 969.229 1069.63 969.961C1069.03 971.424 1068.11 973.547 1066.87 976.234C1064.4 981.608 1060.62 989.242 1055.4 998.37C1044.95 1016.62 1028.66 1040.89 1005.28 1065.01C958.46 1113.34 883.235 1161.01 769.993 1158.56ZM624.547 1114.54L629.475 1115.39C624.547 1114.54 624.547 1114.54 624.548 1114.53L624.549 1114.53L624.553 1114.51L624.562 1114.46C624.569 1114.42 624.579 1114.37 624.59 1114.31C624.614 1114.19 624.646 1114.03 624.69 1113.83C624.778 1113.43 624.91 1112.87 625.101 1112.15C625.484 1110.72 626.104 1108.68 627.076 1106.07C629.021 1100.85 632.372 1093.37 638.053 1084C649.417 1065.26 670.073 1039.03 707.359 1008.26C743.782 978.209 762.904 951.2 772.91 931.922C774.403 929.046 775.695 926.34 776.811 923.819C774.864 925.817 772.73 927.931 770.405 930.14C755.009 944.761 731.209 963.517 697.434 980.304L695.208 975.826L697.433 980.304C665.026 996.407 646.425 1016.74 635.933 1032.9C630.677 1040.99 627.441 1048.05 625.528 1053.05C624.572 1055.55 623.948 1057.52 623.569 1058.85C623.379 1059.51 623.25 1060.01 623.172 1060.33C623.133 1060.49 623.107 1060.6 623.092 1060.67C623.084 1060.7 623.079 1060.73 623.077 1060.74L623.078 1060.73C623.078 1060.73 623.078 1060.73 623.052 1060.73L613.195 1060.09L618.182 1059.72C613.195 1060.09 613.195 1060.08 613.194 1060.08L613.194 1060.07L613.192 1060.04L613.188 1059.97C613.185 1059.92 613.181 1059.86 613.178 1059.78C613.171 1059.62 613.164 1059.42 613.16 1059.15C613.153 1058.63 613.159 1057.91 613.205 1056.98C613.295 1055.13 613.543 1052.49 614.158 1049.14C615.387 1042.43 618.079 1032.91 623.883 1021.2C635.497 997.76 659.483 965.711 708.814 929.836C757.262 894.598 785.74 864.277 802.055 842.918C810.213 832.237 815.336 823.79 818.397 818.08C819.927 815.224 820.943 813.052 821.565 811.625C821.876 810.911 822.089 810.384 822.219 810.051C822.283 809.884 822.327 809.766 822.352 809.697L822.365 809.662L822.373 809.641L822.375 809.635L822.376 809.631L822.378 809.627L828.232 792.597L831.992 810.223L827.102 811.266C831.992 810.223 831.992 810.226 831.993 810.229L831.995 810.237L832 810.264L832.019 810.354C832.034 810.43 832.056 810.537 832.084 810.677C832.113 810.821 832.148 810.999 832.188 811.21C832.225 811.406 832.267 811.63 832.314 811.881C832.505 812.926 832.768 814.448 833.063 816.398C833.651 820.298 834.364 825.915 834.878 832.862C835.907 846.743 836.149 865.995 832.992 887.485C826.674 930.479 806.67 982.758 751.858 1018.47C698.814 1053.03 669.197 1078.09 652.907 1094.38C644.767 1102.52 639.979 1108.45 637.266 1112.25C635.91 1114.15 635.075 1115.51 634.6 1116.35C634.362 1116.77 634.214 1117.06 634.137 1117.22C634.115 1117.26 634.098 1117.3 634.087 1117.32C634.078 1117.34 634.073 1117.35 634.07 1117.36L634.071 1117.35L634.08 1117.33L634.086 1117.32L634.089 1117.31C634.089 1117.31 634.09 1117.31 634.037 1117.29L624.547 1114.54ZM538.456 872.726L536.965 889.869L529.037 874.596L533.475 872.293C529.037 874.596 529.036 874.593 529.034 874.59L529.029 874.581L529.015 874.553L528.967 874.46C528.928 874.382 528.872 874.272 528.802 874.13C528.66 873.846 528.459 873.434 528.205 872.899C527.698 871.829 526.981 870.264 526.116 868.235C524.387 864.178 522.066 858.261 519.651 850.733C514.823 835.682 509.608 814.152 508.014 788.133C504.822 736.006 516.191 666.033 573.941 594.356L577.835 589.524L581.728 594.356C639.486 666.033 650.858 736.006 647.667 788.133C646.075 814.152 640.859 835.682 636.032 850.733C633.617 858.261 631.296 864.178 629.567 868.235C628.702 870.264 627.985 871.829 627.478 872.899C627.224 873.434 627.023 873.846 626.881 874.13C626.852 874.189 626.825 874.243 626.801 874.291C626.767 874.358 626.739 874.415 626.716 874.46L626.668 874.553L626.654 874.581L626.649 874.59C626.647 874.593 626.646 874.596 622.208 872.293L626.646 874.596L618.718 889.869L617.227 872.726C614.052 836.214 603.107 797.673 592.877 768.125C587.772 753.381 582.867 740.94 579.242 732.191C578.748 731 578.279 729.878 577.836 728.828C577.393 729.878 576.924 731 576.43 732.19C572.806 740.939 567.903 753.381 562.8 768.125C552.573 797.673 541.631 836.214 538.456 872.726ZM89.7989 965.879L85.1205 967.644L93.8535 963.003C93.8767 962.986 93.8764 962.985 93.8762 962.985L93.879 962.989L93.8794 962.99C93.8885 963.002 93.9066 963.027 93.9338 963.064C93.9883 963.138 94.0793 963.26 94.2082 963.429C94.4661 963.766 94.8754 964.287 95.4463 964.977C96.5879 966.357 98.376 968.41 100.891 971.002C105.921 976.185 113.861 983.529 125.359 991.963C148.348 1008.82 185.612 1030.08 242.356 1047.13C299.841 1064.4 352.373 1084.57 390.523 1100.41C409.603 1108.33 425.096 1115.17 435.827 1120.04C441.193 1122.48 445.368 1124.42 448.206 1125.75C449.625 1126.42 450.71 1126.93 451.442 1127.28C451.808 1127.46 452.086 1127.59 452.273 1127.68L452.486 1127.78L452.541 1127.81L452.556 1127.82L452.56 1127.82C452.561 1127.82 452.562 1127.82 450.382 1132.32L452.562 1127.82L469.816 1136.18L450.676 1137.31C402.081 1140.18 342.863 1127.68 296.141 1114.64C276.799 1109.25 259.503 1103.73 245.858 1099.11C271.118 1115.01 299.993 1126.34 325.148 1134.13C342.342 1139.45 357.663 1143.07 368.678 1145.37C374.184 1146.52 378.608 1147.33 381.646 1147.85C383.165 1148.12 384.337 1148.31 385.125 1148.43C385.518 1148.49 385.815 1148.54 386.012 1148.57C386.11 1148.58 386.183 1148.59 386.23 1148.6L386.281 1148.61L386.291 1148.61L386.292 1148.61L386.293 1148.61C386.293 1148.61 386.293 1148.61 386.292 1148.62L385.69 1158.56C272.45 1161.01 197.227 1113.34 150.406 1065.01C127.031 1040.89 110.742 1016.62 100.291 998.37C95.0634 989.242 91.2889 981.608 88.8132 976.234C87.5752 973.547 86.6614 971.424 86.0525 969.961C85.748 969.229 85.5197 968.662 85.3652 968.272C85.2879 968.077 85.2291 967.926 85.1884 967.821C85.1681 967.768 85.1523 967.727 85.141 967.697L85.1274 967.662L85.1231 967.65C85.1217 967.647 85.1205 967.644 89.7989 965.879ZM85.9456 706.666L80.9875 706.02L90.6586 704.996C107.83 753.463 139.341 800.696 166.741 835.956C180.414 853.552 193.005 868.092 202.173 878.229C206.756 883.296 210.481 887.26 213.054 889.951C214.341 891.296 215.339 892.323 216.013 893.011C216.35 893.354 216.605 893.613 216.775 893.785C216.86 893.87 216.924 893.934 216.965 893.976L217.011 894.021L217.021 894.032L217.023 894.034L226.936 903.927L212.999 902.548C184.141 899.694 160.925 882.338 145.18 866.248C139.914 860.866 135.424 855.565 131.775 850.886C134.418 868.456 138.867 883.901 143.118 895.862C145.985 903.932 148.754 910.39 150.796 914.812C151.816 917.023 152.654 918.723 153.231 919.86C153.52 920.428 153.743 920.856 153.891 921.135C153.965 921.275 154.02 921.378 154.055 921.443L154.093 921.512L154.099 921.524L154.1 921.525L154.1 921.526C154.1 921.526 154.1 921.525 154.091 921.53L146.298 927.581C104.041 887.976 87.8499 832.296 82.1001 787.09C79.2167 764.42 78.935 744.203 79.3729 729.649C79.592 722.367 79.9916 716.492 80.3382 712.423C80.5116 710.388 80.6717 708.804 80.7896 707.72C80.8486 707.179 80.897 706.762 80.9312 706.476C80.9482 706.334 80.9618 706.224 80.9713 706.147L80.9826 706.058L80.9859 706.033L80.9869 706.025C80.9872 706.022 80.9875 706.02 85.9456 706.666ZM274.919 590.373L277.113 586.09L281.477 588.119L279.37 592.653C281.477 588.119 281.48 588.12 281.483 588.121L281.491 588.125L281.514 588.136L281.583 588.169C281.641 588.196 281.721 588.234 281.822 588.284C282.024 588.382 282.313 588.524 282.683 588.713C283.425 589.09 284.494 589.652 285.861 590.413C288.594 591.937 292.513 594.26 297.365 597.509C307.069 604.008 320.502 614.211 335.618 629.121C365.866 658.957 402.79 707.58 430.083 782.937L430.614 784.403L430.218 785.908L430.218 785.909L430.217 785.91L430.217 785.912L430.216 785.916L430.204 785.964C430.192 786.01 430.173 786.085 430.147 786.188C430.097 786.393 430.021 786.71 429.925 787.129C429.733 787.967 429.462 789.216 429.16 790.813C428.554 794.01 427.824 798.585 427.337 804.041C426.358 815.007 426.387 829.269 430.199 842.994L432.476 851.192L424.207 849.193L425.382 844.333C424.207 849.193 424.202 849.192 424.198 849.191L424.187 849.188L424.161 849.181L424.089 849.163C424.06 849.156 424.028 849.148 423.991 849.138C423.953 849.128 423.911 849.117 423.865 849.104C423.77 849.079 423.657 849.047 423.526 849.01C423.403 848.975 423.264 848.934 423.11 848.888C422.473 848.696 421.576 848.407 420.445 847.993C418.183 847.166 414.989 845.843 411.089 843.816C403.284 839.761 392.67 832.9 381.055 821.598C358.685 799.83 332.822 761.805 315.999 696.16C315.838 696.316 315.674 696.477 315.509 696.641C311.598 700.517 306.347 706.46 301.128 714.628C290.715 730.925 280.359 756.181 281.142 791.796L271.628 794.054L276.143 791.906C271.628 794.054 271.627 794.052 271.626 794.049L271.622 794.042L271.612 794.022L271.58 793.953L271.544 793.876C271.522 793.829 271.496 793.772 271.466 793.706C271.368 793.494 271.228 793.187 271.051 792.788C270.697 791.989 270.191 790.823 269.571 789.312C268.332 786.291 266.632 781.893 264.76 776.315C261.018 765.165 256.577 749.27 253.752 730.218C248.107 692.136 248.89 641.187 274.919 590.373ZM672.073 396.242L673.304 399.58L670.555 401.837C656.337 413.512 643.412 434.224 633.906 452.568C629.202 461.646 625.421 469.969 622.818 476.023C621.517 479.047 620.512 481.5 619.835 483.19C619.497 484.035 619.24 484.689 619.07 485.128C618.984 485.348 618.92 485.513 618.879 485.623L618.833 485.743L618.822 485.771L618.82 485.777L618.82 485.778C618.82 485.778 618.82 485.778 618.815 485.776L609.159 483.601C611.492 455.339 602.697 417.83 593.031 386.89C588.23 371.525 583.277 357.968 579.524 348.253C578.929 346.713 578.365 345.27 577.836 343.932C577.307 345.27 576.742 346.713 576.148 348.253C572.396 357.968 567.445 371.525 562.646 386.89C552.983 417.829 544.191 455.339 546.525 483.601L536.868 485.776C536.863 485.778 536.863 485.778 536.863 485.778L536.863 485.777L536.861 485.771L536.85 485.743L536.804 485.623L536.74 485.455C536.705 485.365 536.663 485.255 536.614 485.128C536.443 484.689 536.187 484.035 535.848 483.19C535.171 481.5 534.166 479.047 532.865 476.023C530.262 469.969 526.482 461.646 521.777 452.568C512.271 434.224 499.346 413.512 485.129 401.837L482.38 399.58L483.611 396.242L488.302 397.973C483.611 396.242 483.611 396.241 483.612 396.24L483.613 396.234L483.62 396.217L483.644 396.151C483.666 396.094 483.697 396.01 483.738 395.901C483.819 395.683 483.94 395.362 484.099 394.945C484.416 394.11 484.885 392.888 485.499 391.326C486.725 388.203 488.528 383.717 490.842 378.244C495.469 367.304 502.153 352.391 510.379 336.514C518.597 320.652 528.399 303.74 539.276 288.841C550.106 274.007 562.237 260.84 575.204 252.814L577.835 251.186L580.466 252.814C593.436 260.839 605.569 274.007 616.401 288.841C627.28 303.739 637.084 320.651 645.303 336.514C653.529 352.391 660.214 367.304 664.841 378.244C667.155 383.717 668.958 388.203 670.185 391.326C670.798 392.888 671.267 394.11 671.584 394.945C671.743 395.362 671.864 395.683 671.945 395.901C671.986 396.01 672.017 396.094 672.039 396.151L672.063 396.217L672.07 396.234L672.072 396.24C672.072 396.241 672.073 396.242 667.382 397.973L672.073 396.242Z" fill="white" stroke="black" stroke-width="10"/>
<path d="M1043.84 522.039C1070.18 522.039 1091.54 500.678 1091.54 474.332C1091.54 447.987 1070.18 426.626 1043.84 426.626C1017.49 426.626 996.128 447.987 996.128 474.332C996.128 500.678 1017.49 522.039 1043.84 522.039Z" fill="white" stroke="black" stroke-width="10"/>
<path d="M830.568 247.772C856.914 247.772 878.275 226.411 878.275 200.066C878.275 173.72 856.914 152.359 830.568 152.359C804.225 152.359 782.875 173.719 782.875 200.066C782.875 226.413 804.225 247.772 830.568 247.772Z" fill="white" stroke="black" stroke-width="10"/>
<path d="M111.848 522.039C138.193 522.039 159.551 500.678 159.551 474.332C159.551 447.987 138.193 426.626 111.848 426.626C85.5037 426.626 64.1458 447.987 64.1458 474.332C64.1458 500.678 85.5037 522.039 111.848 522.039Z" fill="white" stroke="black" stroke-width="10"/>
<path d="M325.111 247.772C351.457 247.772 372.808 226.412 372.808 200.066C372.808 173.719 351.457 152.359 325.111 152.359C298.766 152.359 277.408 173.72 277.408 200.066C277.408 226.411 298.766 247.772 325.111 247.772Z" fill="white" stroke="black" stroke-width="10"/>
<path d="M577.835 100.413C604.193 100.413 625.542 79.0524 625.542 52.7063C625.542 26.3602 604.193 4.99954 577.835 4.99954C551.491 4.99954 530.142 26.3594 530.142 52.7063C530.142 79.0532 551.491 100.413 577.835 100.413Z" fill="white" stroke="black" stroke-width="10"/>
</svg>
