<svg width="1024" height="1024" viewBox="0 0 1024 1024" fill="none" xmlns="http://www.w3.org/2000/svg">
<path d="M64 304C64 242.176 114.176 192 176 192H848C909.824 192 960 242.176 960 304V720C960 749.704 948.2 778.192 927.196 799.196C906.192 820.2 877.704 832 848 832H176C146.296 832 117.808 820.2 96.804 799.196C75.8 778.192 64 749.704 64 720V304ZM336.704 493.696C348.109 493.696 359.402 491.45 369.939 487.085C380.476 482.721 390.05 476.323 398.115 468.259C406.179 460.194 412.577 450.62 416.941 440.083C421.306 429.546 423.552 418.253 423.552 406.848C423.552 395.443 421.306 384.15 416.941 373.613C412.577 363.076 406.179 353.502 398.115 345.437C390.05 337.373 380.476 330.975 369.939 326.611C359.402 322.246 348.109 320 336.704 320C313.67 320 291.58 329.15 275.293 345.437C259.006 361.724 249.856 383.814 249.856 406.848C249.856 429.882 259.006 451.972 275.293 468.259C291.58 484.546 313.67 493.696 336.704 493.696V493.696ZM246.912 537.088C232.348 537.088 218.381 542.873 208.083 553.171C197.785 563.469 192 577.436 192 592C192.002 615.835 199.971 638.985 214.64 657.77C229.309 676.556 249.837 689.9 272.96 695.68L276.352 696.576C316.032 706.496 357.44 706.496 397.056 696.576L400.512 695.744C423.635 689.964 444.163 676.62 458.832 657.834C473.501 639.049 481.47 615.899 481.472 592.064C481.48 584.847 480.066 577.7 477.31 571.03C474.555 564.361 470.511 558.3 465.411 553.194C460.311 548.088 454.255 544.038 447.589 541.274C440.922 538.51 433.777 537.088 426.56 537.088H246.912ZM608 384C599.513 384 591.374 387.371 585.373 393.373C579.371 399.374 576 407.513 576 416C576 424.487 579.371 432.626 585.373 438.627C591.374 444.629 599.513 448 608 448H800C808.487 448 816.626 444.629 822.627 438.627C828.629 432.626 832 424.487 832 416C832 407.513 828.629 399.374 822.627 393.373C816.626 387.371 808.487 384 800 384H608ZM608 576C599.513 576 591.374 579.371 585.373 585.373C579.371 591.374 576 599.513 576 608C576 616.487 579.371 624.626 585.373 630.627C591.374 636.629 599.513 640 608 640H800C808.487 640 816.626 636.629 822.627 630.627C828.629 624.626 832 616.487 832 608C832 599.513 828.629 591.374 822.627 585.373C816.626 579.371 808.487 576 800 576H608Z" fill="black"/>
</svg>
