<svg width="85" height="70" viewBox="0 0 577 475" fill="none" xmlns="http://www.w3.org/2000/svg">
<path d="M362.911 406.131L287.843 424.869C286.415 425.225 284.926 425.262 283.482 424.976L146.897 397.983C145.492 397.706 144.044 397.733 142.65 398.064L20.3078 427.081C14.0262 428.571 8 423.807 8 417.351V52.6809C8 48.1645 11.0272 44.2087 15.3866 43.0284L142.19 8.69713C143.877 8.24036 145.654 8.23376 147.345 8.67797L283.126 44.3586C284.796 44.7976 286.552 44.7964 288.222 44.3553L423.303 8.66772C424.96 8.22993 426.702 8.2254 428.361 8.65455L561.504 43.0896C565.917 44.231 569 48.2125 569 52.771V416.976C569 423.549 562.767 428.334 556.418 426.636L479.707 406.131" stroke="black" stroke-width="15"/>
<path fill-rule="evenodd" clip-rule="evenodd" d="M328.083 308.15C327.365 330.182 336.662 351.004 349.147 369.172C382.868 418.239 421.877 475 421.877 475L496.905 368.408C509.355 350.72 519.008 330.544 519 308.914C518.964 212 421.877 212 421.877 212C421.877 212 331.216 212 328.083 308.15ZM471.366 353.77C496.01 327.039 494.604 285.455 468.232 260.426V260.426C442.345 235.856 401.661 236.081 376.069 260.958V260.958C350.441 285.87 349.1 326.6 373.011 353.164V353.164C399.221 382.281 444.811 382.573 471.366 353.77V353.77Z" fill="black"/>
<path d="M444.255 303.181C439.57 302.605 435.47 300.878 432.542 297.423C429.614 293.967 427.271 289.937 426.685 285.906C424.343 285.33 422.586 284.178 420.829 282.45C418.486 279.571 417.315 276.692 416.729 273.813L411.458 278.995L406.773 274.964C403.259 270.933 396.816 270.933 392.717 274.964L378.075 289.361C373.975 293.392 373.975 299.726 378.075 303.757L382.174 308.364L378.66 311.819C374.561 315.85 374.561 322.184 378.66 326.215L403.844 350.977C407.944 355.008 414.386 355.008 417.9 350.977L455.383 313.546C452.455 312.971 449.526 311.819 447.184 309.515C446.598 307.212 445.427 304.909 444.255 303.181V303.181ZM384.517 293.392L396.231 281.875C397.988 280.147 400.916 280.147 402.087 281.875L405.016 284.754L388.031 302.605L384.517 299.15C383.346 297.423 383.346 295.119 384.517 293.392V293.392ZM388.031 320.457C386.274 318.729 386.274 316.426 388.031 315.274L413.215 289.937C414.972 288.209 417.315 288.209 418.486 289.937C420.243 291.664 420.243 293.967 418.486 295.119L393.302 319.881C391.545 321.608 389.202 321.608 388.031 320.457V320.457ZM398.573 330.822C396.816 329.094 396.816 326.791 398.573 325.639L423.757 300.878C425.514 299.15 427.857 299.15 429.028 300.878C430.785 302.605 430.785 304.909 429.028 306.06L403.844 330.822C402.673 332.55 400.33 332.55 398.573 330.822V330.822ZM440.156 316.426L414.972 341.763C413.215 343.491 410.872 343.491 409.701 341.763C407.944 340.036 407.944 337.732 409.701 336.58L434.885 311.819C436.642 310.091 438.984 310.091 440.156 311.819C441.327 312.395 441.327 315.274 440.156 316.426V316.426ZM465.925 291.088C464.754 289.937 462.997 288.785 461.826 288.785C464.168 283.026 462.997 276.116 458.312 272.085C453.626 267.478 447.184 266.327 441.327 268.63C440.741 266.902 439.57 265.175 438.399 264.023C434.299 259.992 427.857 259.992 424.343 264.023C420.243 268.054 420.243 274.389 424.343 278.42C426.1 280.147 429.028 281.299 431.371 281.299C430.785 285.906 432.542 290.512 436.056 293.967C439.57 297.423 444.255 298.574 448.941 298.574C448.941 301.454 450.112 303.757 451.869 305.485C455.969 309.515 462.411 309.515 465.925 305.485C470.025 301.454 470.025 295.119 465.925 291.088V291.088Z" fill="black"/>
<line x1="147" y1="8" x2="147" y2="398" stroke="black" stroke-width="10"/>
<path d="M286 45L286 424" stroke="black" stroke-width="10" stroke-linecap="round"/>
<path d="M427 9L427 200" stroke="black" stroke-width="10" stroke-linecap="square"/>
</svg>
