<svg width="1152" height="1024" viewBox="0 0 1152 1024" fill="none" xmlns="http://www.w3.org/2000/svg">
<g clip-path="url(#clip0_43_18)">
<path d="M576 0C436.82 0 324 112.82 324 252C324 364.52 488.7 569.6 551.8 644.04C564.58 659.12 587.44 659.12 600.2 644.04C663.3 569.6 828 364.52 828 252C828 112.82 715.18 0 576 0ZM576 336C529.6 336 492 298.4 492 252C492 205.6 529.6 168 576 168C622.4 168 660 205.6 660 252C660 298.4 622.4 336 576 336ZM40.24 431.9C28.3636 436.65 18.1826 444.85 11.0102 455.441C3.83777 466.032 0.00284442 478.529 0 491.32L0 991.96C0 1014.6 22.86 1030.08 43.88 1021.68L320 896V429.84C302.32 397.88 287.86 366.76 277.5 337L40.24 431.9ZM576 719.34C547.86 719.34 521.24 706.98 502.98 685.42C463.66 639.02 421.84 586.18 384 531.98V895.98L768 1023.98V532C730.16 586.18 688.36 639.04 649.02 685.44C630.76 706.98 604.14 719.34 576 719.34ZM1108.12 322.32L832 448V1024L1111.76 912.1C1123.64 907.352 1133.82 899.153 1140.99 888.562C1148.17 877.97 1152 865.472 1152 852.68V352.04C1152 329.4 1129.14 313.92 1108.12 322.32Z" fill="black"/>
</g>
<defs>
<clipPath id="clip0_43_18">
<rect width="1152" height="1024" fill="white"/>
</clipPath>
</defs>
</svg>
