<svg version="1.0" xmlns="http://www.w3.org/2000/svg" width="512.000000pt" height="512.000000pt" viewBox="0 0 512.000000 512.000000" preserveAspectRatio="xMidYMid meet">
    <g transform="translate(0.000000,512.000000) scale(0.100000,-0.100000)" fill="#000000" stroke="none">
        <path d="M2395 4044 c-33 -8 -97 -33 -142 -55 -323 -160 -463 -562 -310 -891 70 -150 174 -256 322 -328 287 -139 642 -57 832 194 164 217 188 490 66 736 -55 110 -179 231 -293 288 -47 23 -114 48 -150 57 -81 18 -245 18 -325 -1z"/>
        <path d="M610 3454 c-250 -53 -430 -278 -430 -534 0 -151 53 -275 164 -385 110 -110 229 -158 386 -157 147 1 277 56 382 162 213 218 211 549 -6 766 -81 81 -164 126 -271 149 -85 18 -140 18 -225 -1z"/>
        <path d="M4280 3454 c-104 -22 -186 -68 -265 -148 -82 -83 -118 -145 -145 -252 -25 -98 -25 -170 0 -268 61 -239 272 -406 516 -408 164 -1 280 46 394 161 81 82 119 147 146 253 22 84 15 232 -14 313 -65 177 -220 311 -407 350 -85 18 -140 18 -225 -1z"/>
        <path d="M1933 2575 c-103 -28 -192 -110 -242 -221 l-26 -59 -3 -617 -3 -618 901 0 900 0 0 598 c0 483 -3 606 -14 643 -44 145 -137 241 -263 274 -82 21 -1171 21 -1250 0z"/>
        <path d="M249 2280 c-108 -19 -195 -97 -229 -208 -19 -60 -20 -93 -20 -538 l0 -474 723 2 722 3 3 445 c2 288 -1 468 -8 509 -20 115 -74 192 -168 238 l-57 28 -460 2 c-253 1 -481 -2 -506 -7z"/>
        <path d="M3917 2280 c-87 -15 -164 -76 -210 -167 -32 -61 -38 -160 -35 -608 l3 -440 723 -3 722 -2 0 474 c0 446 -1 478 -20 539 -26 82 -88 154 -162 188 l-53 24 -460 2 c-253 1 -481 -2 -508 -7z"/>
    </g>
</svg>
