<svg width="1024" height="1024" viewBox="0 0 1024 1024" fill="none" xmlns="http://www.w3.org/2000/svg">
<path d="M908.1 353.1L654.2 316.2L540.7 86.1C537.6 79.8 532.5 74.7 526.2 71.6C510.4 63.8 491.2 70.3 483.3 86.1L369.8 316.2L115.9 353.1C108.9 354.1 102.5 357.4 97.5999 362.4C91.6761 368.489 88.4118 376.68 88.5243 385.174C88.6368 393.668 92.1169 401.77 98.1999 407.7L281.9 586.8L238.5 839.7C237.482 845.583 238.133 851.634 240.379 857.165C242.625 862.697 246.376 867.489 251.207 870.998C256.037 874.506 261.755 876.591 267.71 877.016C273.665 877.44 279.62 876.188 284.9 873.4L512 754L739.1 873.4C745.3 876.7 752.5 877.8 759.4 876.6C776.8 873.6 788.5 857.1 785.5 839.7L742.1 586.8L925.8 407.7C930.8 402.8 934.1 396.4 935.1 389.4C937.8 371.9 925.6 355.7 908.1 353.1V353.1Z" fill="black"/>
</svg>
